<svg width="118" height="15" viewBox="0 0 118 15" fill="none" xmlns="http://www.w3.org/2000/svg">
<path d="M0.52889 12V2.214H2.71289V10.054H6.88489V12H0.52889ZM10.0602 8.234C10.0602 8.85 10.2329 9.354 10.5782 9.746C10.9329 10.1287 11.3809 10.32 11.9222 10.32C12.4729 10.32 12.9209 10.1287 13.2662 9.746C13.6209 9.354 13.7982 8.85 13.7982 8.234C13.7982 7.618 13.6209 7.114 13.2662 6.722C12.9209 6.33 12.4729 6.134 11.9222 6.134C11.3809 6.134 10.9329 6.33 10.5782 6.722C10.2329 7.114 10.0602 7.618 10.0602 8.234ZM15.9122 8.234C15.9122 9.326 15.5342 10.2453 14.7782 10.992C14.0222 11.7387 13.0702 12.112 11.9222 12.112C10.7836 12.112 9.83622 11.7387 9.08022 10.992C8.32422 10.2453 7.94622 9.326 7.94622 8.234C7.94622 7.142 8.32422 6.22267 9.08022 5.476C9.83622 4.72 10.7836 4.342 11.9222 4.342C13.0702 4.342 14.0222 4.72 14.7782 5.476C15.5342 6.22267 15.9122 7.142 15.9122 8.234ZM22.95 8.08C22.95 7.47333 22.782 6.99733 22.446 6.652C22.11 6.30667 21.6947 6.134 21.2 6.134C20.7053 6.134 20.276 6.30667 19.912 6.652C19.5573 6.99733 19.38 7.46867 19.38 8.066C19.38 8.66333 19.5527 9.14867 19.898 9.522C20.2527 9.886 20.682 10.068 21.186 10.068C21.69 10.068 22.11 9.886 22.446 9.522C22.782 9.158 22.95 8.67733 22.95 8.08ZM23.244 10.726C22.5813 11.4633 21.7553 11.832 20.766 11.832C19.786 11.832 18.9553 11.5007 18.274 10.838C17.602 10.166 17.266 9.27467 17.266 8.164C17.266 7.044 17.6113 6.12933 18.302 5.42C19.002 4.70133 19.8 4.342 20.696 4.342C21.592 4.342 22.334 4.71067 22.922 5.448V4.454H25.022V11.02C25.022 11.692 24.9053 12.2893 24.672 12.812C24.4387 13.3347 24.126 13.7453 23.734 14.044C22.9593 14.66 22.0447 14.968 20.99 14.968C20.43 14.968 19.856 14.8747 19.268 14.688C18.6893 14.5107 18.1807 14.254 17.742 13.918L18.554 12.336C19.2447 12.8587 19.9727 13.12 20.738 13.12C21.5127 13.12 22.124 12.9287 22.572 12.546C23.02 12.1633 23.244 11.5567 23.244 10.726ZM29.3099 12H27.2099V4.468H29.3099V12ZM27.3779 3.516C27.1446 3.27333 27.0279 2.97933 27.0279 2.634C27.0279 2.28867 27.1446 1.99933 27.3779 1.766C27.6206 1.52333 27.9146 1.402 28.2599 1.402C28.6052 1.402 28.8946 1.52333 29.1279 1.766C29.3706 1.99933 29.4919 2.28867 29.4919 2.634C29.4919 2.97933 29.3706 3.27333 29.1279 3.516C28.8946 3.74933 28.6052 3.866 28.2599 3.866C27.9146 3.866 27.6206 3.74933 27.3779 3.516ZM33.5978 7.8V12H31.4978V4.468H33.5978V5.308C34.2325 4.664 34.9465 4.342 35.7398 4.342C36.5331 4.342 37.1958 4.622 37.7278 5.182C38.2691 5.742 38.5398 6.48867 38.5398 7.422V12H36.4398V7.744C36.4398 6.58667 36.0151 6.008 35.1658 6.008C34.7458 6.008 34.3771 6.162 34.0598 6.47C33.7518 6.76867 33.5978 7.212 33.5978 7.8ZM49.7806 0.729999H51.7686L45.8886 13.568H43.9146L49.7806 0.729999ZM65.3696 5.462C65.3696 7.03 64.749 8.04267 63.5076 8.5L65.9856 12H63.2976L61.1276 8.878H59.6156V12H57.4316V2.214H61.1416C62.663 2.214 63.7456 2.47067 64.3896 2.984C65.043 3.49733 65.3696 4.32333 65.3696 5.462ZM61.2116 6.988C61.9583 6.988 62.467 6.86667 62.7376 6.624C63.0083 6.38133 63.1436 5.99867 63.1436 5.476C63.1436 4.944 63.0036 4.58 62.7236 4.384C62.4436 4.188 61.9536 4.09 61.2536 4.09H59.6156V6.988H61.2116ZM74.1175 10.908C73.2682 11.7107 72.2695 12.112 71.1215 12.112C69.9828 12.112 69.0402 11.762 68.2935 11.062C67.5468 10.3527 67.1735 9.40533 67.1735 8.22C67.1735 7.03467 67.5515 6.092 68.3075 5.392C69.0728 4.692 69.9735 4.342 71.0095 4.342C72.0455 4.342 72.9228 4.65467 73.6415 5.28C74.3695 5.90533 74.7335 6.764 74.7335 7.856V8.976H69.2455C69.3108 9.38667 69.5255 9.72267 69.8895 9.984C70.2535 10.2453 70.6642 10.376 71.1215 10.376C71.8588 10.376 72.4655 10.1287 72.9415 9.634L74.1175 10.908ZM72.6055 7.478C72.5588 7.03 72.3908 6.68467 72.1015 6.442C71.8122 6.19933 71.4575 6.078 71.0375 6.078C70.6268 6.078 70.2488 6.204 69.9035 6.456C69.5582 6.708 69.3575 7.04867 69.3015 7.478H72.6055ZM81.7258 8.08C81.7258 7.47333 81.5578 6.99733 81.2218 6.652C80.8858 6.30667 80.4705 6.134 79.9758 6.134C79.4811 6.134 79.0518 6.30667 78.6878 6.652C78.3331 6.99733 78.1558 7.46867 78.1558 8.066C78.1558 8.66333 78.3285 9.14867 78.6738 9.522C79.0285 9.886 79.4578 10.068 79.9618 10.068C80.4658 10.068 80.8858 9.886 81.2218 9.522C81.5578 9.158 81.7258 8.67733 81.7258 8.08ZM82.0198 10.726C81.3571 11.4633 80.5311 11.832 79.5418 11.832C78.5618 11.832 77.7311 11.5007 77.0498 10.838C76.3778 10.166 76.0418 9.27467 76.0418 8.164C76.0418 7.044 76.3871 6.12933 77.0778 5.42C77.7778 4.70133 78.5758 4.342 79.4718 4.342C80.3678 4.342 81.1098 4.71067 81.6978 5.448V4.454H83.7978V11.02C83.7978 11.692 83.6811 12.2893 83.4478 12.812C83.2145 13.3347 82.9018 13.7453 82.5098 14.044C81.7351 14.66 80.8205 14.968 79.7658 14.968C79.2058 14.968 78.6318 14.8747 78.0438 14.688C77.4651 14.5107 76.9565 14.254 76.5178 13.918L77.3298 12.336C78.0205 12.8587 78.7485 13.12 79.5138 13.12C80.2885 13.12 80.8998 12.9287 81.3478 12.546C81.7958 12.1633 82.0198 11.5567 82.0198 10.726ZM88.0857 12H85.9857V4.468H88.0857V12ZM86.1537 3.516C85.9204 3.27333 85.8037 2.97933 85.8037 2.634C85.8037 2.28867 85.9204 1.99933 86.1537 1.766C86.3964 1.52333 86.6904 1.402 87.0357 1.402C87.381 1.402 87.6704 1.52333 87.9037 1.766C88.1464 1.99933 88.2677 2.28867 88.2677 2.634C88.2677 2.97933 88.1464 3.27333 87.9037 3.516C87.6704 3.74933 87.381 3.866 87.0357 3.866C86.6904 3.866 86.3964 3.74933 86.1537 3.516ZM95.9436 9.662C95.9436 10.3993 95.6682 10.992 95.1176 11.44C94.5762 11.888 93.8856 12.112 93.0456 12.112C92.4856 12.112 91.9022 12.014 91.2956 11.818C90.6889 11.6127 90.1429 11.314 89.6576 10.922L90.5816 9.606C91.3656 10.2127 92.2009 10.516 93.0876 10.516C93.3582 10.516 93.5729 10.4647 93.7316 10.362C93.8902 10.25 93.9696 10.1053 93.9696 9.928C93.9696 9.75067 93.8576 9.58733 93.6336 9.438C93.4189 9.28867 93.1016 9.14867 92.6816 9.018C92.2709 8.88733 91.9536 8.77533 91.7296 8.682C91.5149 8.58867 91.2676 8.45333 90.9876 8.276C90.4182 7.92133 90.1336 7.39867 90.1336 6.708C90.1336 6.008 90.4136 5.43867 90.9736 5C91.5336 4.56133 92.2569 4.342 93.1436 4.342C94.0302 4.342 94.9169 4.64067 95.8036 5.238L95.0196 6.638C94.3662 6.19 93.7129 5.966 93.0596 5.966C92.4156 5.966 92.0936 6.14333 92.0936 6.498C92.0936 6.694 92.1962 6.848 92.4016 6.96C92.6069 7.072 92.9476 7.20267 93.4236 7.352C93.8996 7.50133 94.2356 7.618 94.4316 7.702C94.6369 7.77667 94.8796 7.898 95.1596 8.066C95.6822 8.38333 95.9436 8.91533 95.9436 9.662ZM100.198 5.98V9.354C100.198 9.64333 100.273 9.872 100.422 10.04C100.572 10.1987 100.749 10.278 100.954 10.278C101.346 10.278 101.678 10.1007 101.948 9.746L102.732 11.216C102.079 11.8133 101.388 12.112 100.66 12.112C99.9417 12.112 99.3303 11.874 98.8263 11.398C98.3317 10.922 98.0843 10.2733 98.0843 9.452V5.98H97.2023V4.468H98.0843V2.214H100.198V4.468H102.018V5.98H100.198ZM110.582 10.908C109.733 11.7107 108.734 12.112 107.586 12.112C106.448 12.112 105.505 11.762 104.758 11.062C104.012 10.3527 103.638 9.40533 103.638 8.22C103.638 7.03467 104.016 6.092 104.772 5.392C105.538 4.692 106.438 4.342 107.474 4.342C108.51 4.342 109.388 4.65467 110.106 5.28C110.834 5.90533 111.198 6.764 111.198 7.856V8.976H105.71C105.776 9.38667 105.99 9.72267 106.354 9.984C106.718 10.2453 107.129 10.376 107.586 10.376C108.324 10.376 108.93 10.1287 109.406 9.634L110.582 10.908ZM109.07 7.478C109.024 7.03 108.856 6.68467 108.566 6.442C108.277 6.19933 107.922 6.078 107.502 6.078C107.092 6.078 106.714 6.204 106.368 6.456C106.023 6.708 105.822 7.04867 105.766 7.478H109.07ZM116.875 6.316C116.249 6.316 115.783 6.54 115.475 6.988C115.167 7.42667 115.013 8.01 115.013 8.738V12H112.913V4.468H115.013V5.462C115.283 5.154 115.619 4.89267 116.021 4.678C116.431 4.46333 116.847 4.35133 117.267 4.342L117.281 6.316H116.875Z" fill="#23A6F0"/>
</svg>
